<mxfile host="app.diagrams.net" modified="2022-05-12T15:05:15.465Z" agent="5.0 (Windows)" etag="8HvqQ77HWEy6aCCsgrVj" version="18.0.3" type="github">
  <diagram name="Page-1" id="12e1b939-464a-85fe-373e-61e167be1490">
    <mxGraphModel dx="1049" dy="617" grid="1" gridSize="10" guides="1" tooltips="1" connect="1" arrows="1" fold="1" page="1" pageScale="1.5" pageWidth="1169" pageHeight="826" background="none" math="0" shadow="0">
      <root>
        <mxCell id="0" />
        <mxCell id="1" parent="0" />
        <mxCell id="Wz3pbXOtHqT8NCrgispx-46" value="Dispensing software" style="swimlane;childLayout=stackLayout;resizeParent=1;resizeParentMax=0;horizontal=0;startSize=20;horizontalStack=0;" vertex="1" parent="1">
          <mxGeometry x="600" y="775" width="960" height="340" as="geometry" />
        </mxCell>
        <mxCell id="Wz3pbXOtHqT8NCrgispx-47" value="Software control" style="swimlane;startSize=20;horizontal=0;" vertex="1" parent="Wz3pbXOtHqT8NCrgispx-46">
          <mxGeometry x="20" width="940" height="110" as="geometry" />
        </mxCell>
        <mxCell id="Wz3pbXOtHqT8NCrgispx-43" value="界面" style="swimlane;" vertex="1" parent="Wz3pbXOtHqT8NCrgispx-47">
          <mxGeometry x="440" y="10" width="140" height="100" as="geometry" />
        </mxCell>
        <mxCell id="Wz3pbXOtHqT8NCrgispx-10" value="界面显示 5" style="rounded=1;whiteSpace=wrap;html=1;" vertex="1" parent="Wz3pbXOtHqT8NCrgispx-43">
          <mxGeometry x="10" y="30" width="120" height="60" as="geometry" />
        </mxCell>
        <mxCell id="Wz3pbXOtHqT8NCrgispx-39" value="参数管控" style="swimlane;" vertex="1" parent="Wz3pbXOtHqT8NCrgispx-47">
          <mxGeometry x="580" y="10" width="140" height="100" as="geometry" />
        </mxCell>
        <mxCell id="Wz3pbXOtHqT8NCrgispx-9" value="参数范围&amp;nbsp; 6" style="rounded=1;whiteSpace=wrap;html=1;" vertex="1" parent="Wz3pbXOtHqT8NCrgispx-39">
          <mxGeometry x="10" y="30" width="120" height="60" as="geometry" />
        </mxCell>
        <mxCell id="Wz3pbXOtHqT8NCrgispx-41" value="用户登录" style="swimlane;" vertex="1" parent="Wz3pbXOtHqT8NCrgispx-47">
          <mxGeometry x="720" y="10" width="140" height="100" as="geometry" />
        </mxCell>
        <mxCell id="Wz3pbXOtHqT8NCrgispx-8" value="用户管理 37" style="rounded=1;whiteSpace=wrap;html=1;" vertex="1" parent="Wz3pbXOtHqT8NCrgispx-41">
          <mxGeometry x="10" y="30" width="120" height="60" as="geometry" />
        </mxCell>
        <mxCell id="Wz3pbXOtHqT8NCrgispx-26" value="日志数据库" style="swimlane;" vertex="1" parent="Wz3pbXOtHqT8NCrgispx-47">
          <mxGeometry x="20" y="10" width="140" height="100" as="geometry" />
        </mxCell>
        <mxCell id="Wz3pbXOtHqT8NCrgispx-13" value="日志管理器 7" style="rounded=1;whiteSpace=wrap;html=1;" vertex="1" parent="Wz3pbXOtHqT8NCrgispx-26">
          <mxGeometry x="10" y="30" width="120" height="60" as="geometry" />
        </mxCell>
        <mxCell id="Wz3pbXOtHqT8NCrgispx-36" value="流程控制" style="swimlane;" vertex="1" parent="Wz3pbXOtHqT8NCrgispx-47">
          <mxGeometry x="300" y="10" width="140" height="100" as="geometry" />
        </mxCell>
        <mxCell id="Wz3pbXOtHqT8NCrgispx-5" value="自动流程 2" style="rounded=1;whiteSpace=wrap;html=1;" vertex="1" parent="Wz3pbXOtHqT8NCrgispx-36">
          <mxGeometry x="10" y="30" width="110" height="30" as="geometry" />
        </mxCell>
        <mxCell id="Wz3pbXOtHqT8NCrgispx-19" value="过度速度 3" style="rounded=1;whiteSpace=wrap;html=1;" vertex="1" parent="Wz3pbXOtHqT8NCrgispx-36">
          <mxGeometry x="10" y="65" width="110" height="35" as="geometry" />
        </mxCell>
        <mxCell id="Wz3pbXOtHqT8NCrgispx-62" value="运行数据管理" style="swimlane;" vertex="1" parent="Wz3pbXOtHqT8NCrgispx-47">
          <mxGeometry x="160" y="10" width="140" height="100" as="geometry" />
        </mxCell>
        <mxCell id="Wz3pbXOtHqT8NCrgispx-64" value="Mapping 3" style="rounded=1;whiteSpace=wrap;html=1;" vertex="1" parent="Wz3pbXOtHqT8NCrgispx-62">
          <mxGeometry x="13" y="30" width="90" height="30" as="geometry" />
        </mxCell>
        <mxCell id="Wz3pbXOtHqT8NCrgispx-18" value="多级矩阵 11" style="rounded=1;whiteSpace=wrap;html=1;" vertex="1" parent="Wz3pbXOtHqT8NCrgispx-62">
          <mxGeometry x="18" y="65" width="80" height="30" as="geometry" />
        </mxCell>
        <mxCell id="Wz3pbXOtHqT8NCrgispx-37" value="MES" style="swimlane;" vertex="1" parent="Wz3pbXOtHqT8NCrgispx-47">
          <mxGeometry x="860" y="10" width="70" height="40" as="geometry" />
        </mxCell>
        <mxCell id="Wz3pbXOtHqT8NCrgispx-40" value="贴合通信" style="swimlane;" vertex="1" parent="Wz3pbXOtHqT8NCrgispx-47">
          <mxGeometry x="860" y="50" width="70" height="40" as="geometry" />
        </mxCell>
        <mxCell id="Wz3pbXOtHqT8NCrgispx-48" value="Hardware control" style="swimlane;startSize=20;horizontal=0;" vertex="1" parent="Wz3pbXOtHqT8NCrgispx-46">
          <mxGeometry x="20" y="110" width="940" height="110" as="geometry" />
        </mxCell>
        <mxCell id="Wz3pbXOtHqT8NCrgispx-65" value="Station" style="swimlane;" vertex="1" parent="Wz3pbXOtHqT8NCrgispx-48">
          <mxGeometry x="20" y="10" width="140" height="100" as="geometry" />
        </mxCell>
        <mxCell id="Wz3pbXOtHqT8NCrgispx-20" value="平面测高 7" style="rounded=1;whiteSpace=wrap;html=1;" vertex="1" parent="Wz3pbXOtHqT8NCrgispx-65">
          <mxGeometry x="8" y="30" width="120" height="30" as="geometry" />
        </mxCell>
        <mxCell id="Wz3pbXOtHqT8NCrgispx-23" value="激光测高 2" style="rounded=1;whiteSpace=wrap;html=1;" vertex="1" parent="Wz3pbXOtHqT8NCrgispx-65">
          <mxGeometry x="8" y="70" width="120" height="30" as="geometry" />
        </mxCell>
        <mxCell id="Wz3pbXOtHqT8NCrgispx-31" value="Valve" style="swimlane;" vertex="1" parent="Wz3pbXOtHqT8NCrgispx-48">
          <mxGeometry x="160" y="10" width="140" height="100" as="geometry" />
        </mxCell>
        <mxCell id="Wz3pbXOtHqT8NCrgispx-14" value="阀门控制改动 6" style="rounded=1;whiteSpace=wrap;html=1;" vertex="1" parent="Wz3pbXOtHqT8NCrgispx-31">
          <mxGeometry x="10" y="30" width="120" height="60" as="geometry" />
        </mxCell>
        <mxCell id="Wz3pbXOtHqT8NCrgispx-34" value="Convery" style="swimlane;" vertex="1" parent="Wz3pbXOtHqT8NCrgispx-48">
          <mxGeometry x="300" y="10" width="140" height="100" as="geometry" />
        </mxCell>
        <mxCell id="Wz3pbXOtHqT8NCrgispx-51" value="出板流程" style="rounded=1;whiteSpace=wrap;html=1;" vertex="1" parent="Wz3pbXOtHqT8NCrgispx-34">
          <mxGeometry x="35" y="30" width="60" height="25" as="geometry" />
        </mxCell>
        <mxCell id="Wz3pbXOtHqT8NCrgispx-52" value="过板延时" style="rounded=1;whiteSpace=wrap;html=1;" vertex="1" parent="Wz3pbXOtHqT8NCrgispx-34">
          <mxGeometry x="35" y="70" width="60" height="25" as="geometry" />
        </mxCell>
        <mxCell id="Wz3pbXOtHqT8NCrgispx-27" value="视觉相关（标定，胶检，对针，防呆,AOI）" style="swimlane;" vertex="1" parent="Wz3pbXOtHqT8NCrgispx-48">
          <mxGeometry x="440" y="10" width="400" height="100" as="geometry" />
        </mxCell>
        <mxCell id="Wz3pbXOtHqT8NCrgispx-11" value="PR 3" style="rounded=1;whiteSpace=wrap;html=1;" vertex="1" parent="Wz3pbXOtHqT8NCrgispx-27">
          <mxGeometry x="270" y="30" width="120" height="60" as="geometry" />
        </mxCell>
        <mxCell id="Wz3pbXOtHqT8NCrgispx-2" value="胶检 15" style="rounded=1;whiteSpace=wrap;html=1;" vertex="1" parent="Wz3pbXOtHqT8NCrgispx-27">
          <mxGeometry x="140" y="30" width="120" height="60" as="geometry" />
        </mxCell>
        <mxCell id="Wz3pbXOtHqT8NCrgispx-17" value="自动对针 1" style="rounded=1;whiteSpace=wrap;html=1;" vertex="1" parent="Wz3pbXOtHqT8NCrgispx-27">
          <mxGeometry x="10" y="30" width="120" height="60" as="geometry" />
        </mxCell>
        <mxCell id="Wz3pbXOtHqT8NCrgispx-49" value="Base" style="swimlane;startSize=20;horizontal=0;" vertex="1" parent="Wz3pbXOtHqT8NCrgispx-46">
          <mxGeometry x="20" y="220" width="940" height="120" as="geometry" />
        </mxCell>
        <mxCell id="Wz3pbXOtHqT8NCrgispx-29" value="灯光控制" style="swimlane;" vertex="1" parent="Wz3pbXOtHqT8NCrgispx-49">
          <mxGeometry x="550" y="20" width="140" height="100" as="geometry" />
        </mxCell>
        <mxCell id="Wz3pbXOtHqT8NCrgispx-30" value="光照参数 3" style="rounded=1;whiteSpace=wrap;html=1;" vertex="1" parent="Wz3pbXOtHqT8NCrgispx-29">
          <mxGeometry x="10" y="29" width="120" height="60" as="geometry" />
        </mxCell>
        <mxCell id="Wz3pbXOtHqT8NCrgispx-53" value="相机控制" style="swimlane;" vertex="1" parent="Wz3pbXOtHqT8NCrgispx-49">
          <mxGeometry x="690" y="20" width="140" height="100" as="geometry" />
        </mxCell>
        <mxCell id="Wz3pbXOtHqT8NCrgispx-24" value="运功控制相关（Home, 轴3D移动,硬件控制）" style="swimlane;startSize=23;" vertex="1" parent="Wz3pbXOtHqT8NCrgispx-49">
          <mxGeometry x="20" y="20" width="530" height="100" as="geometry" />
        </mxCell>
        <mxCell id="Wz3pbXOtHqT8NCrgispx-22" value="路径插补运动 9" style="rounded=1;whiteSpace=wrap;html=1;" vertex="1" parent="Wz3pbXOtHqT8NCrgispx-24">
          <mxGeometry x="10" y="30" width="120" height="60" as="geometry" />
        </mxCell>
        <mxCell id="Wz3pbXOtHqT8NCrgispx-4" value="Home1" style="rounded=1;whiteSpace=wrap;html=1;" vertex="1" parent="Wz3pbXOtHqT8NCrgispx-24">
          <mxGeometry x="140" y="30" width="120" height="60" as="geometry" />
        </mxCell>
        <mxCell id="Wz3pbXOtHqT8NCrgispx-6" value="IO配置 1" style="rounded=1;whiteSpace=wrap;html=1;" vertex="1" parent="Wz3pbXOtHqT8NCrgispx-24">
          <mxGeometry x="270" y="30" width="120" height="60" as="geometry" />
        </mxCell>
        <mxCell id="Wz3pbXOtHqT8NCrgispx-21" value="总气压防护 3" style="rounded=1;whiteSpace=wrap;html=1;" vertex="1" parent="Wz3pbXOtHqT8NCrgispx-24">
          <mxGeometry x="400" y="30" width="120" height="60" as="geometry" />
        </mxCell>
        <mxCell id="Wz3pbXOtHqT8NCrgispx-59" value="Others" style="swimlane;" vertex="1" parent="1">
          <mxGeometry x="440" y="950" width="150" height="165" as="geometry" />
        </mxCell>
        <mxCell id="Wz3pbXOtHqT8NCrgispx-15" value="错误日志数据库 7" style="rounded=1;whiteSpace=wrap;html=1;" vertex="1" parent="Wz3pbXOtHqT8NCrgispx-59">
          <mxGeometry x="10" y="30" width="120" height="60" as="geometry" />
        </mxCell>
        <mxCell id="Wz3pbXOtHqT8NCrgispx-16" value="CHM文档使用说明" style="rounded=1;whiteSpace=wrap;html=1;" vertex="1" parent="Wz3pbXOtHqT8NCrgispx-59">
          <mxGeometry x="10" y="100" width="120" height="60" as="geometry" />
        </mxCell>
      </root>
    </mxGraphModel>
  </diagram>
</mxfile>
